<!DOCTYPE html>
<html>
<head>
<meta charset="utf-8"> 
<title>Big data project</title> 
<style>
div.scroll
{
	width:800px;
	height:200px;
	overflow-x:scroll;
	overflow-y:scroll;
	
}
img {
    width: 100%;
    height: auto;
}
body
{
	background-color:#b0c4de;
}

</style>
</head>

<body>
<div class="scroll">
		4d54 6864 0000 0006 0001 0002 01e0 4d54
726b 0000 0008 00ff 5804 0402 1808 4d54
726b 0000 08a6 7890 4c46 8360 804c 0000
9048 4600 3246 0036 4600 3946 8360 8048
0000 904a 4683 6080 4a00 0090 4e46 8360
804e 0000 904a 4683 6080 4a00 0090 4f46
7880 4f00 0090 4e46 8360 804e 0000 904a
4678 804a 0000 904e 4681 7080 3200 0036
0000 3900 0090 3946 0031 4600 3446 8360
804e 0000 904c 4681 7080 4c00 0090 4e46
8170 804e 0000 904a 4681 7080 4a00 0090
4946 8170 8049 0000 904a 4685 5080 4a00
0090 4c46 8170 804c 0000 3900 0031 0000
3400 0090 4f46 0032 4600 3646 0039 4678
804f 0000 904e 4678 804e 0000 904f 4678
804f 0000 904e 4682 6880 4e00 0090 4c46
8170 804c 0000 904a 4681 7080 4a00 0090
4c46 7880 4c00 0090 4946 7880 4900 0090
4e46 8170 804e 0000 9051 4681 7080 3200
0036 0000 3900 0090 3746 003b 4600 3246
8360 8051 0000 9053 4683 6080 5300 0090
4f46 8360 804f 0000 9051 4681 7080 5100
0090 4e46 8170 804e 0000 904a 4681 7080
4a00 0090 4c46 8170 804c 0000 904a 4683
6080 4a00 0090 4746 8360 8047 0000 9043
4683 6080 4300 0090 4746 8170 8047 0000
9043 4681 7080 4300 0090 4046 8170 8040
0000 9043 4681 7080 4300 0037 0000 3b00
0032 0000 9045 4600 3946 0030 4600 3446
8550 8045 0000 9047 4681 7080 4700 0090
4846 8360 8048 0000 904a 4681 7080 4a00
0090 4c46 8170 804c 0000 3900 0030 0000
3400 0090 5146 0037 4600 3b46 0032 4681
7080 5100 0090 4f46 8170 804f 0000 904e
4681 7080 4e00 0090 4f46 8170 804f 0000
9051 4681 7080 5100 0090 4e46 8360 804e
0000 904f 4683 6080 4f00 0090 4e46 8360
804e 0000 904c 4681 7080 4c00 0090 4a46
8170 804a 0000 9047 4683 6080 4700 0090
4946 8170 8049 0000 904a 4681 7080 4a00
0090 4746 8170 8047 0000 9045 4681 7080
4500 0090 4746 8268 8047 0000 904c 4678
804c 0000 9045 4681 7080 4500 0090 3e46
8170 803e 0000 3700 003b 0000 3200 0090
4346 0039 4600 3046 0034 4683 6080 4300
0090 4546 8170 8045 0000 9043 4681 7080
4300 0090 4246 8170 8042 0000 903e 4681
7080 3900 0030 0000 3400 0090 3746 003b
4600 3246 8170 803e 0000 9043 4683 6080
4300 0090 4246 8170 8042 0000 9043 4681
7080 4300 0090 4746 8170 8047 0000 9043
4681 7080 4300 0090 4746 8170 8047 0000
3700 003b 0000 3200 0090 4346 0032 4600
3646 0039 4681 7080 4300 0090 4746 8360
8047 0000 9048 4681 7080 4800 0090 4a46
8170 804a 0000 3200 0036 0000 3900 0090
4c46 0039 4600 3046 0034 4681 7080 4c00
0090 4e46 8170 804e 0000 904f 4681 7080
4f00 0090 4c46 8170 804c 0000 904e 4683
6080 4e00 0039 0000 3000 0034 0000 904c
4600 3246 0036 4600 3946 8170 804c 0000
904a 4683 6080 4a00 0090 4946 8170 8049
0000 9045 4681 7080 4500 0090 4a46 8170
804a 0000 904f 4681 7080 4f00 0090 4e46
8170 804e 0000 904f 4681 7080 4f00 0032
0000 3600 0039 0000 9051 4600 3b46 0032
4600 3646 8170 8051 0000 904a 4685 5080
4a00 0090 4746 8360 8047 0000 904a 4681
7080 4a00 0090 4946 8170 8049 0000 3b00
0032 0000 3600 0090 4a46 0032 4600 3646
0039 4685 5080 4a00 0090 4946 7880 4900
0090 4e46 7880 4e00 0090 4c46 8170 804c
0000 904a 4681 7080 4a00 0032 0000 3600
0039 0000 904e 4600 3b46 0032 4600 3646
8170 804e 0000 9051 4683 6080 5100 0090
4e46 8360 804e 0000 904f 4681 7080 4f00
0090 4a46 8170 804a 0000 9049 4681 7080
4900 003b 0000 3200 0036 0000 904a 4600
3446 0037 4600 3b46 8170 804a 0000 9048
4681 7080 4800 0090 4746 8170 8047 0000
9045 4681 7080 4500 0090 4e46 8360 804e
0000 3400 0037 0000 3b00 0090 4c46 0032
4600 3646 0039 4681 7080 4c00 0090 4a46
7880 4a00 0090 4c46 7880 4c00 0090 4f46
8170 804f 0000 904c 4681 7080 4c00 0090
4a46 8170 804a 0000 9049 4681 7080 4900
0090 4c46 8170 804c 0000 904e 4681 7080
4e00 0090 4c46 8170 804c 0000 904a 4681
7080 4a00 0090 4e46 8170 804e 0000 904f
4681 7080 4f00 0090 5146 7880 3200 0036
0000 3900 0090 3446 0037 4600 3b46 8170
8051 0000 9053 4678 8053 0000 9051 4681
7080 5100 0090 4e46 8360 804e 0000 904f
4681 7080 4f00 0090 5346 8170 8053 0000
904f 4681 7080 4f00 0090 5346 8170 8053
0000 904e 4681 7080 4e00 0090 4c46 8360
804c 0000 904e 4681 7080 4e00 0090 4f46
8170 804f 0000 3400 0037 0000 3b00 0090
5146 0039 4600 3046 0034 4683 6080 5100
0090 4e46 8170 804e 0000 9051 4681 7080
3900 0030 0000 3400 0090 3046 0034 4600
3746 8170 8051 0000 904c 4678 804c 0000
904f 4678 804f 0000 904a 4681 7080 4a00
0090 4c46 8170 804c 0000 3000 0034 0000
3700 0090 4a46 0032 4600 3646 0039 4683
6080 4a00 0090 4846 8360 8048 0000 904a
4683 6080 4a00 0032 0000 3600 0039 0000
9048 4600 3746 003b 4600 3246 8170 8048
0000 9047 4681 7080 4700 0090 4a46 8170
804a 0000 9046 4678 8046 0000 9047 4678
8047 0000 904a 4681 7080 4a00 0090 4946
8360 8049 0000 9048 4681 7080 4800 0090
4546 8170 8045 0000 3700 003b 0000 3200
0090 4246 0039 4600 3046 0034 4681 7080
4200 0090 4346 8170 8043 0000 9045 4681
7080 4500 0090 4746 8170 8047 0000 9048
4681 7080 4800 0090 4746 8170 8047 0000
3900 0030 0000 3400 0090 4546 0032 4600
3646 0039 4681 7080 4500 0090 4346 8170
8043 0000 9042 4681 7080 4200 0090 3e46
8170 803e 0000 9043 4683 6080 4300 0090
4746 8170 8047 0000 9043 4681 7080 4300
0090 4746 8360 8047 0000 9045 4683 6080
4500 0032 0000 3600 0039 0000 9047 4600
3746 003b 4600 3246 8360 8047 0000 9043
4681 7080 4300 0090 4546 8170 8045 0000
9043 4681 7080 4300 0090 4046 8170 8040
0000 903e 4681 7080 3e00 0090 4246 8170
8042 0000 9045 4681 7080 4500 0090 4346
8170 8043 0000 903e 4681 7080 3e00 0090
4346 8d10 8043 0000 904a 4683 6080 4a00
0090 4746 8360 8047 0000 904a 4683 6080
3700 003b 0000 3200 0090 3046 0034 4600
3746 8360 804a 0000 9048 4683 6080 4800
0090 4c46 8170 804c 0000 904e 4681 7080
4e00 0090 4c46 8170 804c 0000 904a 4681
7080 4a00 0090 4846 8360 8048 0000 3000
0034 0000 3700 0090 4a46 0037 4600 3b46
0032 4683 6080 4a00 0090 4746 8360 8047
0000 904a 4687 4080 4a00 0090 4846 8360
8048 0000 3700 003b 0000 3200

</div>	
<img src="file:///src/folkmusic.png">	
<p>play generated midi: <a href="http://localhost:8000/midivisu/#12">midi visualier</a></p>


</body>
</html>