<!DOCTYPE html>
<html>
<head>
<meta charset="utf-8"> 
<title>Big data project</title> 
<style>
div.scroll
{
	width:800px;
	height:200px;
	overflow-x:scroll;
	overflow-y:scroll;
	
}
img {
    width: 100%;
    height: auto;
}
body
{
	background-color:#b0c4de;
}

</style>
</head>

<body>
<div class="scroll">
4d54 6864 0000 0006 0001 0002 01e0 4d54
726b 0000 0008 00ff 5804 0402 1808 4d54
726b 0000 0770 7890 3446 7880 3400 0090
2d46 7880 2d00 0090 3446 8170 8034 0000
902e 4681 7080 2e00 0090 3a46 7880 3a00
0090 2e46 7880 2e00 8170 8100 0090 3246
8170 8032 0000 9035 4678 8035 0000 9037
4681 7080 3700 0090 3246 7880 3200 0090
3746 7880 3700 0090 3246 7880 3200 7881
0000 9032 4678 8032 0078 8100 0090 3b46
7880 3b00 8170 8100 0090 3246 7880 3200
7881 0000 9030 4678 8030 0000 9035 4678
8035 0000 9030 4681 7080 3000 7881 0000
9037 4681 7080 3700 0090 3546 7880 3500
0090 3246 7880 3200 0090 2f46 7880 2f00
9260 8100 0090 3246 8268 8032 0082 6881
0000 9037 4678 8037 0078 8100 0090 3246
7880 3200 8360 8100 0090 3e46 8170 803e
0082 6881 0000 903d 4681 7080 3d00 0090
3946 7880 3900 7881 0000 903d 4678 803d
0084 5881 0000 9040 4681 7080 4000 8648
8100 0090 3e46 7880 3e00 0090 3c46 8170
803c 0000 903b 4681 7080 3b00 8360 8100
0090 3f46 8740 803f 0000 903e 4681 7080
3e00 0090 4146 7880 4100 0090 3f46 8268
803f 0083 6081 0000 904a 4678 804a 0000
904d 4678 804d 0000 904c 4678 804c 0000
9045 4678 8045 0000 9042 4681 7080 4200
0090 4446 7880 4400 0090 3d46 7880 3d00
0090 4046 7880 4000 0090 3b46 7880 3b00
0090 4046 7834 4600 3846 003b 4678 8040
0000 3400 0038 0000 3b00 7881 0000 9045
4678 8045 0000 9047 4681 7080 4700 0090
4046 8550 8040 0000 9042 4681 7080 4200
0090 4346 7880 4300 0090 4746 7880 4700
0090 4246 8170 8042 0000 9040 4683 6080
4000 0090 4346 8170 8043 0000 9040 4600
3646 003a 4600 3146 8170 8036 0000 3a00
0031 0081 7040 0000 9043 4678 3746 003b
4600 3246 8170 8037 0000 3b00 0032 0078
4300 0090 4246 0037 4600 3b46 0032 4678
8037 0000 3b00 0032 0078 4200 0090 4346
8170 3746 003b 4600 3246 8170 8043 0000
9042 4682 6880 4200 7881 0000 9045 4683
6080 4500 0090 4746 8170 8047 0000 903e
4681 7080 3e00 0090 4246 7880 4200 0090
4046 7880 4000 0090 4546 8170 8045 0000
3700 003b 0000 3200 0090 4746 0032 4600
3646 0039 4681 7080 3200 0036 0000 3900
0090 3b46 0033 4600 3646 8170 8047 0000
3b00 0033 0000 3600 0090 4546 0031 4600
3546 0038 4678 8031 0000 3500 0038 0000
903b 4600 3346 0036 4678 803b 0000 3300
0036 0000 9036 4600 3a46 0031 4685 5080
4500 0036 0000 3a00 0031 0000 9047 4600
3246 0036 4600 3946 8170 8032 0000 3600
0039 0000 9037 4600 3b46 0032 4690 7080
4700 0090 4546 8170 8045 0000 9043 4681
7080 3700 003b 0000 3200 0090 3546 0039
4600 3046 8170 8035 0000 3900 0030 0000
9037 4600 3b46 0032 4683 6080 4300 0090
4846 7880 4800 0090 4746 8458 8047 0000
9045 4678 8045 0000 9047 4678 8037 0000
3b00 0032 0000 9034 4600 3846 003b 4681
7080 4700 0090 3e46 7880 3e00 0090 4546
7880 4500 0090 4346 8170 8043 0000 9042
4681 7080 4200 0090 4046 8268 8040 0000
9042 4678 8042 0000 3400 0038 0000 3b00
0090 4446 7880 4400 0090 4246 7880 4200
0090 4446 8170 8044 0000 9042 4678 8042
0000 9040 4678 3446 0038 4600 3b46 7880
4000 0090 4246 7880 3400 0038 0000 3b00
0090 3946 0031 4600 3446 8170 8039 0000
3100 0034 0000 903b 4600 3346 0036 4681
7080 4200 0090 4946 7880 4900 003b 0000
3300 0036 0000 9042 4600 3446 0038 4600
3b46 7880 3400 0038 0000 3b00 0090 3946
0031 4600 3446 8360 8042 0000 3900 0031
0000 3400 0090 3b46 0033 4600 3646 7880
3b00 0033 0000 3600 7890 3b46 0033 4600
3646 8170 803b 0000 3300 0036 0000 9039
4600 3146 0034 4685 5080 3900 0031 0000
3400 0090 3746 003b 4600 3246 7880 3700
003b 0000 3200 0090 3a46 0032 4600 3546
7880 3a00 0032 0000 3500 0090 3946 0031
4600 3446 8550 8039 0000 3100 0034 0000
9035 4600 3946 0030 4685 5080 3500 0039
0000 3000 0090 3946 0031 4600 3446 8360
8039 0000 3100 0034 0088 3890 3b46 0033
4600 3646 7880 3b00 0033 0000 3600 da00
903b 4600 3346 0036 4683 6080 3b00 0033
0000 3600 0090 3046 0034 4600 3746 7880
3000 0034 0000 3700 0090 3b46 0033 4600
3646 8268 803b 0000 3300 0036 0000 9039
4600 3146 0034 4681 7080 3900 0031 0000
3400 0090 3b46 0033 4600 3646 8550 803b
0000 3300 0036 0078 9030 4600 3446 0037
4678 8030 0000 3400 0037 0000 903b 4600
3346 0036 4681 7080 3b00 0033 0000 3600
0090 3046 0034 4600 3746 8550 8030 0000
3400 0037 0078 9030 4600 3446 0037 4678
8030 0000 3400 0037 0084 5890 3046 0034
4600 3746 7880 3000 0034 0000 3700 0090
3946 0031 4600 3446 8360 8039 0000 3100
0034 0000 9030 4600 3446 0037 4684 5880
3000 0034 0000 3700 0090 3b46 0033 4600
3646 7880 3b00 0033 0000 3600 0090 3046
0034 4600 3746 8170 8030 0000 3400 0037
0000 9037 4600 3b46 0032 4682 6880 3700
003b 0000 3200 7890 3b46 0033 4600 3646
8268 803b 0000 3300 0036 0000 9036 4600
3a46 0031 4678 8036 0000 3a00 0031 0000
9034 4600 3846 003b 4681 7080 3400 0038
0000 3b00 0090 3746 003b 4600 3246 8170
8037 0000 3b00 0032 0000 9039 4600 3146
0034 4687 4080 3900 0031 0000 3400 0090
3b46 0033 4600 3646 8170 803b 0000 3300
0036 0000 9037 4600 3b46 0032 4685 5080
3700 003b 0000 3200 0090 3446 0038 4600
3b46 8360 8034 0000 3800 003b 0000 9032
4600 3646 0039 4685 5080 3200 0036 0000
3900 9c10 8100 

</div>	
<img src="file:///src/moviebackground.png">	
<p>play generated midi: <a href="http://localhost:8000/midivisu/#12">midi visualier</a></p>


</body>
</html>