<!DOCTYPE html>
<html>
<head>
<meta charset="utf-8"> 
<title>Big data project</title> 
<style>
div.scroll
{
	width:800px;
	height:200px;
	overflow-x:scroll;
	overflow-y:scroll;
	
}
img {
    width: 100%;
    height: auto;
}
body
{
	background-color:#b0c4de;
}

</style>
</head>

<body>
<div class="scroll">
	4d54 6864 0000 0006 0001 0002 01e0 4d54
726b 0000 0008 00ff 5804 0402 1808 4d54
726b 0000 0d74 b538 9032 4600 3646 0039
4682 6880 3200 0036 0000 3900 0090 3746
003b 4600 3246 7880 3700 003b 0000 3200
0090 3546 0039 4600 3046 7880 3500 0039
0000 3000 0090 3746 003b 4600 3246 7880
3700 003b 0000 3200 0090 3946 0031 4600
3446 8268 8039 0000 3100 0034 0000 9032
4600 3646 0039 4682 6880 3200 0036 0000
3900 0090 3746 003b 4600 3246 8170 8037
0000 3b00 0032 0000 9039 4600 3146 0034
4678 8039 0000 3100 0034 0000 9030 4600
3446 0037 4678 8030 0000 3400 0037 0000
9032 4600 3646 0039 4683 6080 3200 0036
0000 3900 7890 3246 0036 4600 3946 8170
8032 0000 3600 0039 0000 903b 4600 3346
0036 4681 7080 3b00 0033 0000 3600 0090
3246 0036 4600 3946 7880 3200 0036 0000
3900 0090 3b46 0033 4600 3646 8170 803b
0000 3300 0036 0082 6890 3246 0036 4600
3946 8458 8032 0000 3600 0039 0000 9030
4600 3446 0037 4678 8030 0000 3400 0037
0000 9032 4600 3646 0039 4683 6080 3200
0036 0000 3900 0090 3046 0034 4600 3746
7880 3000 0034 0000 3700 0090 3246 0036
4600 3946 7880 3200 0036 0000 3900 0090
3446 0038 4600 3b46 8550 8034 0000 3800
003b 0000 9039 4600 3146 0034 4678 8039
0000 3100 0034 0000 9032 4600 3646 0039
4678 8032 0000 3600 0039 0000 9034 4600
3846 003b 4678 8034 0000 3800 003b 0000
9030 4600 3446 0037 4681 7080 3000 0034
0000 3700 0090 3546 0039 4600 3046 8170
8035 0000 3900 0030 0000 9034 4600 3846
003b 4687 4080 3400 0038 0000 3b00 0090
3246 0036 4600 3946 8170 8032 0000 3600
0039 0000 9034 4600 3846 003b 4678 8034
0000 3800 003b 0000 9032 4600 3646 0039
4682 6880 3200 0036 0000 3900 0090 3446
0038 4600 3b46 7880 3400 0038 0000 3b00
0090 3246 0036 4600 3946 7880 3200 0036
0000 3900 0090 3046 0034 4600 3746 7880
3000 0034 0000 3700 0090 3246 0036 4600
3946 8170 8081 0000 9054 4678 8054 0000
3200 0036 0000 3900 0090 3046 0034 4600
3746 7880 3000 0034 0000 3700 0090 3246
0036 4600 3946 8170 8032 0000 3600 0039
0000 9030 4600 3446 0037 4678 8030 0000
3400 0037 0000 9032 4600 3646 0039 4681
7080 3200 0036 0000 3900 8170 9034 4600
3846 003b 4682 6880 3400 0038 0000 3b00
7890 3246 0036 4600 3946 7880 3200 0036
0000 3900 7881 0000 904c 4678 804c 0078
8100 0090 4c46 8268 804c 0000 904f 4681
7032 4600 3646 0039 4678 804f 0000 3200
0036 0000 3900 0090 5446 7880 5400 0090
4f46 7880 4f00 0090 5446 7880 5400 0090
4c46 7880 4c00 0090 4e46 7880 4e00 0090
4a46 8648 804a 0000 9043 4678 8043 0000
904a 4678 804a 0000 9043 4678 8043 0000
904a 4678 804a 0000 904c 4678 804c 0000
904a 4683 6080 4a00 0090 4746 7880 4700
0090 4a46 8360 804a 0000 9047 4678 8047
0000 904a 4678 804a 0000 9043 4684 5880
4300 0090 4a46 7880 4a00 0090 4546 7880
4500 0090 4846 7880 4800 0090 4546 7880
4500 0090 4846 8360 8048 0000 9045 4600
3346 0037 4600 3a46 7880 4500 0090 4d46
7880 4d00 0090 4846 8268 8033 0000 3700
003a 0082 6890 3346 0037 4600 3a46 8170
8048 0000 904f 4678 804f 0000 9043 4678
8043 0000 3300 0037 0000 3a00 0090 4846
8360 3346 0037 4600 3a46 7880 4800 7881
0000 3300 0037 0000 3a00 0090 4846 8458
3846 0030 4600 3346 7880 3800 0030 0000
3300 0090 3346 0037 4600 3a46 7880 4800
0090 4a46 7880 4a00 0033 0000 3700 003a
0000 9048 4683 6033 4600 3746 003a 4678
8048 0082 6881 0000 3300 0037 0000 3a00
0090 4846 7880 4800 7881 0000 9048 4678
3346 0037 4600 3a46 7880 4800 7881 0000
9048 4678 8048 0000 9045 4678 8045 0000
3300 0037 0000 3a00 0090 4846 8360 3846
0030 4600 3346 7880 4800 0038 0000 3000
0033 0000 904f 4600 3746 003b 4600 3246
7880 4f00 0037 0000 3b00 0032 0000 904a
4600 3846 0030 4600 3346 8170 8038 0000
3000 0033 0082 684a 0000 9047 4678 8047
0000 904c 4678 804c 0000 9051 4678 8051
0000 9050 4678 8050 0000 904f 4681 7080
4f00 0090 4c46 7880 4c00 0090 4f46 7880
4f00 0090 4d46 8170 804d 0000 904f 4678
804f 0078 8100 0090 4f46 8268 3746 003b
4600 3246 7880 4f00 0037 0000 3b00 0032
0000 904d 4600 3346 0037 4600 3a46 7880
4d00 0090 4f46 7880 4f00 0033 0000 3700
003a 0000 904d 4678 804d 0000 904b 4678
804b 0000 904f 4681 7080 4f00 7881 0000
904a 4600 3346 0037 4600 3a46 7880 4a00
0090 4b46 7880 4b00 0033 0000 3700 003a
0078 8100 0090 4846 0038 4600 3046 0033
4678 8048 0000 3800 0030 0000 3300 0090
4a46 7880 4a00 0090 4b46 7880 4b00 0090
4846 7880 4800 0090 4346 0033 4600 3746
003a 4678 8043 0000 9048 4681 7080 4800
0033 0000 3700 003a 0000 904a 4678 804a
0000 9048 4682 6838 4600 3046 0033 4678
8048 0081 7081 0000 3800 0030 0000 3300
0090 4f46 7880 4f00 0090 4a46 8268 804a
0000 9048 4678 3346 0037 4600 3a46 7880
4800 8268 8100 0033 0000 3700 003a 0000
9048 4682 6833 4600 3746 003a 4678 8048
0082 6881 0000 3300 0037 0000 3a00 0090
4346 8170 8043 0000 9048 4682 6833 4600
3746 003a 4678 8048 0081 7081 0000 9048
4678 8033 0000 3700 003a 0081 7090 3346
0037 4600 3a46 8268 8048 0081 7033 0000
3700 003a 0078 8100 0090 4846 8268 8048
0000 9033 4600 3746 003a 4681 7080 8100
0090 4846 7880 4800 0033 0000 3700 003a
0078 8100 0090 4846 8268 3346 0037 4600
3a46 7880 4800 8170 3300 0037 0000 3a00
7881 0000 9048 4682 6880 4800 0090 3846
0030 4600 3346 7880 8100 0090 4846 8268
8048 0000 3800 0030 0000 3300 0090 4a46
7880 4a00 0090 4846 8268 8048 0000 9046
4678 8046 0000 904b 4600 3346 0037 4600
3a46 7880 4b00 7881 0000 904d 4678 804d
0000 904b 4678 804b 0000 904f 4678 804f
0000 3300 0037 0000 3a00 7881 0000 9048
4681 7080 4800 0090 4a46 0038 4600 3046
0033 4678 804a 0000 3800 0030 0000 3300
0090 3346 0037 4600 3a46 8170 8081 0000
3300 0037 0000 3a00 0090 4846 0032 4600
3646 0039 4678 8048 0000 3200 0036 0000
3900 0090 4a46 7880 4a00 0090 4846 8170
8048 0000 9046 4600 3846 0030 4600 3346
7880 4600 0090 4846 7880 3800 0030 0000
3300 0090 3346 0037 4600 3a46 7880 3300
0037 0000 3a00 0090 3846 0030 4600 3346
7880 3800 0030 0000 3300 8360 4800 0090
4646 0033 4600 3746 003a 4678 8046 0000
3300 0037 0000 3a00 0090 4846 0038 4600
3046 0033 4678 8038 0000 3000 0033 0000
9033 4600 3746 003a 4678 8048 0078 8100
0033 0000 3700 003a 0000 9048 4682 6833
4600 3746 003a 4678 8048 0000 904f 4678
804f 0078 8100 0090 5246 7880 5200 0033
0000 3700 003a 0078 8100 0090 4f46 7880
4f00 8170 9033 4600 3746 003a 4678 8081
0000 9052 4678 8052 0078 8100 0033 0000
3700 003a 0000 904f 4678 804f 0000 9048
4678 8048 0000 904f 4678 804f 0000 904c
4600 3846 0030 4600 3346 7880 4c00 0090
4f46 7880 4f00 7881 0000 904b 4678 804b
0000 904d 4678 8038 0000 3000 0033 0078
4d00 0090 4b46 7880 4b00 0090 4f46 7880
4f00 0090 4b46 0033 4600 3746 003a 4678
804b 0081 7081 0000 9050 4678 8050 0000
3300 0037 0000 3a00 0090 4846 7880 4800
0090 4f46 7880 4f00 0090 4a46 7880 4a00
0090 3346 0037 4600 3a46 7880 8100 0033
0000 3700 003a 0000 9046 4600 3746 003b
4600 3246 7880 4600 7837 0000 3b00 0032
0078 8100 0090 4c46 7880 4c00 0090 5046
7880 5000 0090 4f46 7880 4f00 0090 4b46
0037 4600 3b46 0032 4678 804b 0000 3700
003b 0000 3200 0090 3846 0030 4600 3346
7880 3800 0030 0000 3300 7881 0000 904f
4600 3846 0030 4600 3346 7880 3800 0030
0000 3300 8268 9038 4600 3046 0033 4678
8038 0000 3000 0033 0000 9037 4600 3b46
0032 4678 804f 0000 3700 003b 0000 3200
0090 4d46 0033 4600 3746 003a 4678 804d
0000 3300 0037 0000 3a00 0090 4f46 8360
3346 0037 4600 3a46 8268 8033 0000 3700
003a 0000 9037 4600 3b46 0032 4678 8037
0000 3b00 0032 0081 704f 0000 9048 4678
8048 0000 904f 4678 804f 0000 904b 4600
3346 0037 4600 3a46 7880 4b00 7881 0000
3300 0037 0000 3a00 0090 4f46 7880 4f00
0090 4d46 7880 4d00 0090 4f46 7880 4f00
7881 0000 9052 4678 8052 0000 904b 4600
3346 0037 4600 3a46 7880 4b00 7881 0000
904d 4678 804d 0000 3300 0037 0000 3a00
0090 4f46 7880 4f00 7881 0000 904f 4678
804f 0000 9050 4678 8050 0000 904b 4678
3346 0037 4600 3a46 8170 804b 0000 904a
4678 804a 0000 3300 0037 0000 3a00 0090
4d46 7880 4d00 0090 4846 8268 3846 0030
4600 3346 8170 8038 0000 3000 0033 0000
9033 4600 3746 003a 4678 8033 0000 3700
003a 0078 4800 0090 4a46 7880 4a00 0090
4846 8170 8048 0000 9046 4600 3346 0037
4600 3a46 7880 4600 8170 8100 0090 4846
7880 3300 0037 0000 3a00 8268 9033 4600
3746 003a 4681 7080 4800 8170 8100 0033
0000 3700 003a 0000 9048 4683 6080 4800
0090 3846 0030 4600 3346 7880 8100 0038
0000 3000 0033 0000 9048 4600 3346 0037
4600 3a46 7880 4800 0090 5246 7880 5200
0090 4846 7880 3300 0037 0000 3a00 8268
9033 4600 3746 003a 4681 7080 4800 0033
0000 3700 003a 0000 9038 4600 3046 0033
4678 8038 0000 3000 0033 0000 9033 4600
3746 003a 4678 8081 0000 3300 0037 0000
3a00 0090 4846 0035 4600 3946 0030 4678
8035 0000 3900 0030 0082 6890 3346 0037
4600 3a46 8360 8033 0000 3700 003a 0078
9033 4600 3746 003a 4678 8033 0000 3700
003a 0081 7090 3346 0037 4600 3a46 7880
4800 8170 8100 0090 4346 8170 8043 0000
3300 0037 0000 3a00 0090 4846 7880 4800
0090 4346 7880 4300 0090 4546 7880 4500
0090 4846 7880 4800 0090 4a46 0038 4600
3046 0033 4678 804a 0000 9052 4678 8052
0000 3800 0030 0000 3300 

</div>	
<img src="file:///src/Chinesetriditional.png">	
<p>play generated midi: <a href="http://localhost:8000/midivisu/#12">midi visualier</a></p>


</body>
</html>