<!DOCTYPE html>
<html>
<head>
<meta charset="utf-8"> 
<title>Big data project</title> 
<style>
div.scroll
{
	width:800px;
	height:200px;
	overflow-x:scroll;
	overflow-y:scroll;
	
}
img {
    width: 100%;
    height: auto;
}
body
{
	background-color:#b0c4de;
}

</style>
</head>

<body>
<div class="scroll">
	4d54 6864 0000 0006 0001 0002 01e0 4d54
726b 0000 0019 00ff 5103 07a1 2000 ff59
0200 0000 ff58 0404 0218 0800 ff2f 004d
5472 6b00 0007 7300 b000 0000 2000 00c0
0000 ff03 0855 6e74 6974 6c65 6400 b007
7f78 903a 4600 4646 0033 4600 3746 8170
8033 0000 3700 003a 0000 9037 4600 3b46
0032 4678 8046 0000 904b 4684 5880 3b00
0032 0000 3700 0090 3546 0039 4600 3046
8170 8035 0000 3900 0030 0081 704b 0000
9052 4681 7080 5200 0090 5446 8a28 8054
0000 9053 4678 8053 0000 9054 4683 6080
5400 0090 5646 8268 8056 0000 9054 4682
6880 5400 0090 5346 7832 4600 3746 003b
4678 8032 0000 3700 003b 0081 7053 0000
9050 468f 003a 4600 3246 0035 4683 6080
3500 003a 0000 3200 0090 3146 0034 4600
3946 7880 3400 0039 0000 3100 0090 3246
0035 4600 3a46 8458 8032 0000 3500 003a
0000 9036 4600 3a46 0031 4683 6080 3a00
0031 0000 3600 0090 3846 0030 4600 3346
8170 8030 0000 3300 0038 0000 9035 4600
3946 0030 4683 6080 5000 0090 5746 7880
5700 0090 5546 7880 5500 0090 4f46 8170
8039 0000 3000 0035 0000 9035 4600 3846
0031 4678 8038 0000 3100 0035 0000 9037
4600 3a46 0033 4678 803a 0000 3300 0037
0000 9039 4600 3046 0035 4681 7080 3500
0039 0000 3000 0090 3a46 0033 4600 3746
8360 804f 0083 6033 0000 3700 003a 0000
9035 4600 3a46 0032 4681 7080 3500 003a
0000 3200 8170 9032 4600 3546 003a 4683
6080 3500 003a 0000 3200 8170 9030 4600
3546 0039 4682 6880 3000 0035 0000 3900
0090 3246 0037 4600 3b46 7880 3200 0037
0000 3b00 0090 3346 0038 4600 3046 8360
8038 0000 3000 0033 0000 9031 4600 3646
003a 4678 3c46 7880 3c00 0036 0000 3a00
0031 0000 9033 4600 3846 0030 4683 6080
3300 0038 0000 3000 0090 3a46 0031 4600
3646 8740 8036 0000 3a00 0031 0000 903b
4600 3346 0036 4681 7080 3b00 0033 0000
3600 0090 3846 0030 4600 3346 8268 8038
0000 3000 0033 0000 903a 4600 3246 0035
4682 6880 3200 0035 0000 3a00 8740 903b
4600 3346 0036 4678 8033 0000 3600 003b
0000 903b 4600 3346 0036 4678 8033 0000
3600 003b 0081 7090 3446 0038 4600 3b46
8170 8038 0000 3b00 0034 0000 903b 4600
3346 0036 4683 6080 3300 0036 0000 3b00
8170 9034 4600 3846 003b 4687 4080 3800
003b 0000 3400 0090 3946 0031 4600 3446
8170 8031 0000 3400 0039 0000 903b 4600
3346 0036 4678 8033 0000 3600 003b 0000
9034 4600 3846 003b 4685 5080 3800 003b
0000 3400 7890 3a46 0032 4600 3546 7880
3200 0035 0000 3a00 0090 3446 0038 4600
3b46 8268 8038 0000 3b00 0034 0000 9039
4600 3146 0034 4681 7080 3100 0034 0000
3900 0090 3446 0038 4600 3b46 8170 8038
0000 3b00 0034 0083 6090 3746 003b 4600
3246 8170 803b 0000 3200 0037 0000 9036
4600 3a46 0031 4681 7080 3a00 0031 0000
3600 0090 3446 0038 4600 3b46 8170 8038
0000 3b00 0034 0000 9032 4600 3646 0039
4681 7080 3600 0039 0000 3200 0090 3446
0038 4600 3b46 8170 8038 0000 3b00 0034
0085 5090 3b46 0033 4600 3646 8170 8033
0000 3600 003b 0000 9030 4600 3446 0037
4678 8034 0000 3700 0030 0000 903b 4600
3346 0036 4688 3880 3300 0036 0000 3b00
7890 3b46 0033 4600 3646 7880 3300 0036
0000 3b00 8170 9039 4600 3146 0034 4683
6080 3100 0034 0000 3900 0090 3646 003a
4600 3146 8170 803a 0000 3100 0036 0000
9034 4600 3846 003b 4681 7080 3800 003b
0000 3400 0090 3146 0035 4600 3846 8170
3146 1834 4681 5880 3100 0035 0000 3800
0031 0000 9039 4600 3146 0034 4618 8034
0000 9031 4681 5880 3100 0034 0000 3900
0090 3b46 0033 4600 3646 1880 3100 0090
3446 8158 8033 0000 3600 003b 0000 9037
4600 3b46 0032 4618 8034 0000 902f 4678
802f 0000 9034 4660 803b 0000 3200 0037
0000 9036 4600 3a46 0031 4610 803a 0000
3100 0036 0087 4834 0000 9031 4678 8031
0000 9034 4682 6832 4600 3546 003a 4678
8032 0000 3500 003a 0078 9033 4600 3646
003b 4686 2d3a 4678 803a 0000 9034 4682
0b80 3400 0090 3546 5d80 3400 0090 3346
8170 8033 0083 0335 0000 902f 4681 7080
2f00 0090 3546 8170 8035 0000 902f 4681
7080 2f00 0090 3446 8170 8034 0000 9038
4678 8038 0000 9034 4684 5880 3400 0090
4046 7880 4000 0090 3446 8458 8034 0000
9040 4678 8040 0000 9034 4678 8034 0000
9040 4678 8040 0000 9034 4682 502e 4618
8034 0000 9040 4678 8040 0000 9034 4660
802e 0000 902f 4678 802f 0082 0834 0000
9035 4678 8035 0000 902f 4681 7080 2f00
003b 0000 3300 0036 0000 9034 4678 3646
003b 4600 3346 8458 8034 0000 9035 4681
7080 3500 0090 2f46 8170 802f 0000 9035
4681 7080 3500 0090 2f46 8170 802f 0000
9034 4616 2d46 6280 3400 0090 4046 1680
2d00 6240 0000 9034 4689 3080 3400 0090
2f46 7880 2f00 0090 3446 8170 8034 0000
902f 4678 802f 0000 9034 4683 6080 3400
0090 4046 7880 4000 0090 3446 8360 8034
0000 9040 4678 8040 0000 9034 4681 7080
3400 0090 3546 8170 8035 0000 902f 4681
7080 2f00 0090 3446 7880 3400 0090 4046
7880 4000 0090 3546 8170 8035 0000 9034
4678 8033 0000 3600 003b 0000 9034 4600
3846 003b 4678 8034 0000 3800 003b 0000
903b 4600 3346 0036 4681 7080 3400 0090
4046 7880 4000 0090 3446 8170 8033 0000
3600 003b 0000 9039 4600 3146 0034 4678
8034 0000 3900 0031 0000 3400 0090 3646
0040 4600 3b46 0033 4681 7080 4000 0090
3446 8360 8034 0000 9040 4678 8040 0000
9034 4678 803b 0000 3300 0036 0000 3400
81f4 3fb0 7f00 00ff 2f00 
</div>	
<img src="file:///src/game.png">	
<p>play generated midi: <a href="http://localhost:8000/midivisu/#12">midi visualier</a></p>


</body>
</html>